<svg width="28" height="30" viewBox="0 0 28 30" fill="none" xmlns="http://www.w3.org/2000/svg">
<path d="M0 24.3652V5.36523C0 3.70838 1.34315 2.36523 3 2.36523H9.6528C10.5097 2.36523 11.3257 2.73168 11.895 3.37214L14.105 5.85833C14.6743 6.49879 15.4903 6.86523 16.3472 6.86523H25C26.6569 6.86523 28 8.20838 28 9.86523V24.3652C28 26.0221 26.6569 27.3652 25 27.3652H3C1.34315 27.3652 0 26.0221 0 24.3652Z" fill="current"/>
<rect x="21" y="14.3652" width="2" height="8" rx="1" fill="#313137"/>
<rect x="26" y="17.3652" width="2" height="8" rx="1" transform="rotate(90 26 17.3652)" fill="#313137"/>
</svg>
