<svg width="30" height="30" viewBox="0 0 30 30" fill="none" xmlns="http://www.w3.org/2000/svg">
<path d="M18.413 6.9209C22.0637 8.01626 22.0636 12.0321 22.4286 14.2227C22.7937 16.4132 22.4293 16.7782 24.2548 18.9688C25.2002 20.1033 25.0742 20.8916 24.6699 21.3721C24.2656 21.8522 23.5691 21.8896 22.9413 21.8896H8.03314C7.40545 21.8896 6.70901 21.852 6.30463 21.3721C5.9002 20.8916 5.77417 20.1034 6.71967 18.9688C8.54484 16.7785 8.17979 16.4131 8.54486 14.2227C8.90993 12.0322 8.91002 8.01639 12.5605 6.9209H18.413Z" fill="white"/>
<circle cx="15.4817" cy="6.92077" r="2.92077" fill="white"/>
<path d="M15.4817 25.9056C17.0948 25.9056 18.4025 24.598 18.4025 22.9849H12.561C12.561 24.598 13.8686 25.9056 15.4817 25.9056Z" fill="white"/>
</svg>
