<svg width="14" height="17" viewBox="0 0 14 17" fill="none" xmlns="http://www.w3.org/2000/svg">
<rect y="3" width="14" height="2" rx="1" fill="#BDBDBD"/>
<rect x="5" y="1" width="4" height="3" rx="1" stroke="#BDBDBD" stroke-width="2"/>
<path d="M11.1094 15.25C10.9834 16.2499 10.1328 16.9999 9.125 17H4.875C3.86717 16.9999 3.01658 16.2499 2.89062 15.25L1.55566 4.63672H12.4443L11.1094 15.25ZM5.44434 6.9541C5.01483 6.95416 4.66699 7.3029 4.66699 7.73242V12.3584C4.66699 12.7879 5.01483 13.1367 5.44434 13.1367C5.87389 13.1367 6.22266 12.788 6.22266 12.3584V7.73242C6.22266 7.30287 5.87389 6.9541 5.44434 6.9541ZM8.55566 6.9541C8.12611 6.9541 7.77734 7.30287 7.77734 7.73242V12.3584C7.77734 12.788 8.12611 13.1367 8.55566 13.1367C8.98517 13.1367 9.33301 12.7879 9.33301 12.3584V7.73242C9.33301 7.3029 8.98517 6.95416 8.55566 6.9541Z" fill="#BDBDBD"/>
</svg>
