<svg width="40" height="40" viewBox="0 0 40 40" fill="none" xmlns="http://www.w3.org/2000/svg">
<path d="M17.5303 5.9165C18.9799 4.77897 21.0201 4.77897 22.4697 5.9165L33.4668 14.5474C34.4326 15.3053 34.9966 16.4652 34.9971 17.6929L34.999 30.7915C34.9991 33.0007 33.2083 34.7915 30.999 34.7915H9.00098C6.79173 34.7915 5.00085 33.0007 5.00098 30.7915L5.00293 17.6929C5.00338 16.4652 5.56745 15.3053 6.5332 14.5474L17.5303 5.9165ZM25 21.0005C23.8954 21.0005 23 21.8959 23 23.0005V25.0005C23.0002 26.1049 23.8955 27.0005 25 27.0005H27C28.1045 27.0005 28.9998 26.1049 29 25.0005V23.0005C29 21.8959 28.1046 21.0005 27 21.0005H25Z" />
</svg>
