<svg width="30" height="30" viewBox="0 0 30 30" fill="none" xmlns="http://www.w3.org/2000/svg">
<path d="M12.5303 0.853254C13.98 -0.284418 16.02 -0.284418 17.4697 0.853254L28.4678 9.48411C29.4336 10.2422 29.9978 11.4018 29.998 12.6296L30 25.7273C30.0003 27.9366 28.2093 29.7283 26 29.7283H4C1.79066 29.7283 -0.000274479 27.9366 3.15531e-08 25.7273L0.00195316 12.6296C0.00219692 11.4018 0.566395 10.2422 1.53223 9.48411L12.5303 0.853254ZM20 15.9363C18.8955 15.9364 18 16.8318 18 17.9363V19.9363C18.0001 21.0407 18.8956 21.9362 20 21.9363H22C23.1045 21.9363 23.9999 21.0408 24 19.9363V17.9363C24 16.8317 23.1046 15.9363 22 15.9363H20Z" fill="current"/>
</svg>
