<svg width="30" height="30" viewBox="0 0 30 30" fill="none" xmlns="http://www.w3.org/2000/svg">
<path d="M18.5387 5.19085C18.3588 4.49149 17.7127 4.00026 16.9713 4H13.0301C12.2884 4 11.6411 4.4913 11.4612 5.19085L11.0413 6.82059L9.2404 7.45131L8.03136 7.11523C7.31849 6.91726 6.55853 7.2168 6.18781 7.8411L4.21641 11.1589C3.84574 11.7831 3.96004 12.5728 4.49263 13.0741L5.77743 14.2818V15.7182L4.49263 16.9259C3.9599 17.4272 3.84571 18.2168 4.21641 18.8411L6.18781 22.1589C6.55856 22.7832 7.31843 23.0828 8.03136 22.8848L9.2404 22.5472L11.0413 23.1779L11.4612 24.8092C11.6411 25.5087 12.2884 26 13.0301 26H16.9713C17.7127 25.9997 18.3588 25.5085 18.5387 24.8092L18.9569 23.1779L20.7579 22.5472L21.9685 22.8848C22.6815 23.0831 23.4428 22.7834 23.8136 22.1589L25.7834 18.8411C26.1542 18.2167 26.0403 17.4272 25.5072 16.9259L24.2224 15.7167V14.2818L25.5072 13.0741C26.0402 12.5728 26.1542 11.7833 25.7834 11.1589L23.8136 7.8411C23.4428 7.21663 22.6815 6.91692 21.9685 7.11523L20.7594 7.45131L18.9569 6.82059L18.5387 5.19085Z" fill="#E9ECEF"/>
<rect x="11" y="11" width="8" height="8" rx="4" fill="#313137"/>
</svg>
