<svg width="32" height="11" viewBox="0 0 32 11" fill="none" xmlns="http://www.w3.org/2000/svg">
<path d="M0.072914 10.2412L3.73165 4.19179C3.91279 3.8923 4.23732 3.7093 4.58733 3.7093H11.8697C12.2362 3.7093 12.5734 3.50881 12.7484 3.18678L14.1962 0.522519C14.3712 0.200493 14.7083 0 15.0748 0H30.748C31.1329 0 31.3734 0.416681 31.181 0.750014L27.6192 6.91863C27.4406 7.22802 27.1105 7.4186 26.7532 7.4186H19.424C19.0901 7.4186 18.7782 7.58529 18.5926 7.86292L16.7929 10.5557C16.6073 10.8333 16.2954 11 15.9615 11H0.500751C0.111316 11 -0.128625 10.5745 0.072914 10.2412Z" fill="#6FCFC3"/>
</svg>
